<?xml version="1.0" standalone="no"?>
<!DOCTYPE svg PUBLIC "-//W3C//DTD SVG 20010904//EN"
 "http://www.w3.org/TR/2001/REC-SVG-20010904/DTD/svg10.dtd">
<svg version="1.0" xmlns="http://www.w3.org/2000/svg"
 width="300.000000pt" height="300.000000pt" viewBox="0 0 300.000000 300.000000"
 preserveAspectRatio="xMidYMid meet">
<metadata>
Created by potrace 1.10, written by Peter Selinger 2001-2011
</metadata>
<g transform="translate(0.000000,300.000000) scale(0.100000,-0.100000)"
fill="#000000" stroke="none">
<path d="M1280 2983 c-217 -33 -427 -115 -620 -241 -113 -75 -327 -289 -402
-402 -147 -225 -233 -468 -244 -690 -6 -128 8 -110 37 50 70 385 223 665 491
899 207 182 455 295 757 346 52 9 108 22 125 30 30 13 28 13 -44 13 -41 0 -86
-2 -100 -5z"/>
<path d="M1576 2976 c17 -8 73 -22 125 -31 348 -59 615 -195 846 -432 202
-206 339 -476 392 -771 23 -129 39 -192 48 -192 14 0 -8 212 -31 305 -69 280
-188 488 -401 700 -212 213 -420 332 -700 401 -120 30 -332 45 -279 20z"/>
<path d="M766 2139 c-53 -13 -101 -51 -129 -102 -22 -42 -22 -43 -22 -537 l0
-495 25 -45 c14 -24 45 -58 68 -75 l44 -30 748 0 748 0 44 30 c23 17 54 51 68
75 l25 45 -3 498 c-2 474 -3 500 -22 537 -25 50 -73 86 -130 99 -57 13 -1408
13 -1464 0z m1511 -59 c65 -39 64 -28 64 -580 0 -552 1 -541 -64 -580 -31 -19
-56 -20 -777 -20 -721 0 -746 1 -777 20 -64 39 -63 28 -64 578 -1 553 -2 542
64 582 31 19 56 20 777 20 721 0 746 -1 777 -20z"/>
<path d="M840 1466 l0 -386 660 0 660 0 0 386 c0 212 -4 384 -8 382 -4 -1
-151 -115 -325 -253 -175 -137 -322 -250 -327 -250 -5 0 -152 113 -327 250
-174 138 -321 252 -325 253 -4 2 -8 -170 -8 -382z m345 69 c220 -172 293 -225
315 -225 21 0 95 53 316 226 l289 227 5 -309 c4 -261 3 -311 -9 -321 -21 -18
-1191 -19 -1209 -1 -9 9 -12 92 -12 313 0 262 3 315 16 315 1 0 132 -101 289
-225z"/>
<path d="M14 1350 c12 -246 114 -514 285 -745 92 -126 265 -286 407 -377 184
-118 441 -204 644 -214 139 -7 115 9 -61 41 -176 32 -313 76 -442 142 -437
223 -717 614 -797 1113 -7 41 -19 90 -26 110 -13 32 -14 27 -10 -70z"/>
<path d="M2971 1418 c-5 -18 -19 -87 -31 -153 -54 -306 -193 -578 -404 -789
-228 -227 -485 -360 -818 -420 -182 -33 -209 -49 -68 -42 306 15 632 165 879
401 222 213 356 442 427 730 23 92 45 305 31 305 -3 0 -10 -15 -16 -32z"/>
</g>
</svg>
